<?xml version="1.0" encoding="utf-8"?>
<!-- Generator: Adobe Illustrator 22.0.0, SVG Export Plug-In . SVG Version: 6.00 Build 0)  -->
<svg version="1.1" id="图层_1" xmlns="http://www.w3.org/2000/svg" xmlns:xlink="http://www.w3.org/1999/xlink" x="0px" y="0px"
	 viewBox="0 0 512 512" style="enable-background:new 0 0 512 512;" xml:space="preserve">
<style type="text/css">
	.st0{fill:#292A2A;}
</style>
<g>
	<path class="st0" d="M349.9,0c-1.1,0-2,0.9-2,2v31.6c0,1.1-0.9,2-2,2h-45.1c-1.1,0-2-0.9-2-2V2c0-1.1-0.9-2-2-2H277
		c-1.1,0-2,0.9-2,2v31.6c0,1.1-0.9,2-2,2h-45.1c-1.1,0-2-0.9-2-2V2c0-1.1-0.9-2-2-2h-19.7c-1.1,0-2,0.9-2,2v31.6c0,1.1-0.9,2-2,2
		H155c-1.1,0-2-0.9-2-2V2c0-1.1-0.9-2-2-2h-19.7c-1.1,0-2,0.9-2,2v31.6c0,1.1,0,2.9,0,4v21.6c0,1.1,0,2,0,2.1c0,0,0,1,0,2.1v23.4
		c0,1.1,0.5,2.8,1.1,3.7l33.7,54.2c0.6,0.9,0.2,1.7-0.9,1.7h-9c-1.1,0-2,0.9-2,2v14.2c0,1.1,0.9,2,2,2h43c1.1,0,2,0.9,2,2
		l-0.2,284.4c0,1.1-0.9,2-2,2h-7.3c-1.1,0-2,0.9-2,2v4.4c0,1.1-0.9,2-2,2h-34.2c-1.1,0-2,0.9-2,2v2.8c0,1.1-0.9,2-2,2h-16.9
		c-1.1,0-2,0.9-2,2v41c0,1.1,0.9,2,2,2h238.4c1.1,0,2-0.9,2-2v-41c0-1.1-0.9-2-2-2h-16.9c-1.1,0-2-0.9-2-2v-2.8c0-1.1-0.9-2-2-2
		h-34.2c-1.1,0-2-0.9-2-2v-4.4c0-1.1-0.9-2-2-2h-9c-1.1,0-2-0.9-2-2l0.2-284.4c0-1.1,0.9-2,2-2H345c1.1,0,2-0.9,2-2v-14.2
		c0-1.1-0.9-2-2-2h-9.7c-1.1,0-1.5-0.7-0.9-1.7l36.1-54.3c0.6-0.9,1.1-2.6,1.1-3.7V63.3c0-1.1,0-2,0-2.1c0,0,0-0.1,0-0.1
		c0,0,0-0.9,0-2V37.6c0-1.1,0-2.9,0-4V2c0-1.1-0.9-2-2-2H349.9z"/>
</g>
</svg>
