<?xml version="1.0" encoding="utf-8"?>
<!-- Generator: Adobe Illustrator 22.0.0, SVG Export Plug-In . SVG Version: 6.00 Build 0)  -->
<svg version="1.1" id="图层_1" xmlns="http://www.w3.org/2000/svg" xmlns:xlink="http://www.w3.org/1999/xlink" x="0px" y="0px"
	 viewBox="0 0 512 512" style="enable-background:new 0 0 512 512;" xml:space="preserve">
<style type="text/css">
	.st0{fill:#FFFFFF;}
</style>
<g>
	<path class="st0" d="M322,93c-1.1,0-2,0.9-2,2v21.4c0,1.1-0.9,2-2,2h-31c-1.1,0-2-0.9-2-2V95c0-1.1-0.9-2-2-2h-12.9
		c-1.1,0-2,0.9-2,2v21.4c0,1.1-0.9,2-2,2h-31c-1.1,0-2-0.9-2-2V95c0-1.1-0.9-2-2-2h-12.9c-1.1,0-2,0.9-2,2v21.4c0,1.1-0.9,2-2,2h-31
		c-1.1,0-2-0.9-2-2V95c0-1.1-0.9-2-2-2h-12.9c-1.1,0-2,0.9-2,2v21.4c0,1.1,0,2.9,0,4v14.2c0,1.1,0,2,0,2c0,0,0,0.9,0,2v15.5
		c0,1.1,0.5,2.8,1.1,3.7l23.4,37.6c0.6,0.9,0.2,1.7-0.9,1.7h-5.2c-1.1,0-2,0.9-2,2v8.9c0,1.1,0.9,2,2,2H212c1.1,0,2,0.9,2,2
		l-0.2,201.2c0,1.1-0.9,2-2,2h-4c-1.1,0-2,0.9-2,2v2c0,1.1-0.9,2-2,2h-23.2c-1.1,0-2,0.9-2,2v0.8c0,1.1-0.9,2-2,2h-10.9
		c-1.1,0-2,0.9-2,2v28c0,1.1,0.9,2,2,2h168.5c1.1,0,2-0.9,2-2v-28c0-1.1-0.9-2-2-2h-10.9c-1.1,0-2-0.9-2-2v-0.8c0-1.1-0.9-2-2-2
		h-23.2c-1.1,0-2-0.9-2-2v-2c0-1.1-0.9-2-2-2h-5.3c-1.1,0-2-0.9-2-2l0.2-201.2c0-1.1,0.9-2,2-2h30.3c1.1,0,2-0.9,2-2v-8.9
		c0-1.1-0.9-2-2-2h-5.8c-1.1,0-1.5-0.7-0.9-1.7l25.1-37.7c0.6-0.9,1.1-2.6,1.1-3.7v-15.5c0-1.1,0-2,0-2c0,0,0,0,0,0s0-0.9,0-2v-14.2
		c0-1.1,0-2.9,0-4V95c0-1.1-0.9-2-2-2H322z"/>
</g>
</svg>
